# xmcd CD database file
#
# Track frame offsets:
#	150
#	14603
#	28572
#	42814
#	56895
#	71360
#	84398
#	96967
#	110909
#	126786
#	140273
#	153956
#	167740
#	181766
#	197314
#	212203
#	225771
#	240467
#	255518
#	268362
#	285184
#	296838
#
# Disc length: 4138 seconds
#
# Revision: 0
# Processed by: cddbd v1.5.2PL0 Copyright (c) Steve Scherf et al.
# Submitted via: CDex 1.70beta2
#
DISCID=2f102816
DTITLE=Teddy Wilson - Giants of Jazz Disc 1
DYEAR=1900
DGENRE=Jazz
TTITLE0=I’ve Got the World on a String: Louis Armstrong and His Orchestra
TTITLE1=Blue Lou: Benny Carter and His Orchestra 
TTITLE2=As Long as I Live: Benny Goodman and His Orchestra
TTITLE3=Liza: Teddy Wilson 
TTITLE4=I Surrender, Dear: Red Norvo and His Swing Septet
TTITLE5=The Sheik: Willie Bryant and His Orchestra
TTITLE6=Someday Sweetheart: Benny Goodman Trio
TTITLE7=Sweet Lorraine: Teddy Wilson and His Orchestra
TTITLE8=Someday Sweetheart: Mildred Bailey and Her Swing Band
TTITLE9=Liza: Teddy Wilson 
TTITLE10=Rosetta: Teddy Wilson
TTITLE11=Twenty-Four Hours a Day: Teddy Wilson and His Orchestra 
TTITLE12=Squeeze Me: Mildred Bailey and Her Alley Cats
TTITLE13=Down Hearted Blues: Mildred Bailey and Her Alley Cats
TTITLE14=I Feel Like a Feather in the Breeze: Teddy Wilson
TTITLE15=Oh, Lady Be Good!: Benny Goodman Trio
TTITLE16=Warmin’ Up: Teddy Wilson and His Orchestra
TTITLE17=Blues in C Sharp Minor. Teddy Wilson and His Orchestra 
TTITLE18=Sailin’: Teddy Wilson and His Orchestra
TTITLE19=Ida, Sweet as Apple Cider: Benny Goodman Quartet 
TTITLE20=Fine and Dandy: Teddy Wilson and His Orchestra
TTITLE21=I’ll Never Be the Same: Teddy Wilson and Orchestra
EXTD=
EXTT0=
EXTT1=
EXTT2=
EXTT3=
EXTT4=
EXTT5=
EXTT6=
EXTT7=
EXTT8=
EXTT9=
EXTT10=
EXTT11=
EXTT12=
EXTT13=
EXTT14=
EXTT15=
EXTT16=
EXTT17=
EXTT18=
EXTT19=
EXTT20=
EXTT21=
PLAYORDER=
